<svg id="Capa_1" enable-background="new 0 0 502.185 502.185" height="512" viewBox="0 0 502.185 502.185" width="512" xmlns="http://www.w3.org/2000/svg"><g><path d="m206.217 494.954c-48.503 0-98.412-22.239-137.596-61.394-40.36-40.361-62.714-92.106-61.337-141.972 1.27-45.655 22.576-88.239 61.624-123.183 176.651-158.049 423.376-168.301 425.851-168.394 1.993-.112 3.935.653 5.316 2.095 1.411 1.408 2.172 3.339 2.102 5.33-.086 2.468-10.338 249.193-168.386 425.837-34.93 39.048-77.536 60.354-123.183 61.624-1.459.043-2.923.062-4.391.057zm-127.452-71.538c37.584 37.577 85.37 58.338 131.433 57.14 42.211-1.177 80.19-20.302 112.889-56.853 138.816-155.158 161.091-365.713 164.283-408.864-43.158 3.178-253.821 25.532-408.871 164.283-36.565 32.67-55.691 70.656-56.868 112.867-1.277 45.913 19.556 93.842 57.14 131.426h-.006z"/><path d="m7.176 502.185c-3.962-.001-7.173-3.213-7.172-7.175 0-1.902.756-3.725 2.1-5.07l318.042-318.049c2.85-2.753 7.391-2.674 10.144.176 2.685 2.78 2.685 7.188 0 9.968l-318.042 318.048c-1.345 1.346-3.169 2.102-5.072 2.102z"/><path d="m330.72 244.584h-66c-3.962 0-7.174-3.212-7.174-7.174s3.212-7.174 7.174-7.174h66c3.962 0 7.174 3.212 7.174 7.174s-3.212 7.174-7.174 7.174z"/><path d="m279.785 310.642h-81.065c-3.962 0-7.174-3.212-7.174-7.174s3.212-7.174 7.174-7.174h81.065c3.962 0 7.174 3.212 7.174 7.174s-3.212 7.174-7.174 7.174z"/><path d="m236.742 383.859h-111.239c-3.962 0-7.174-3.212-7.174-7.174s3.212-7.174 7.174-7.174h111.239c3.962 0 7.174 3.212 7.174 7.174s-3.212 7.174-7.174 7.174z"/><path d="m293.473 215.889c-3.962 0-7.174-3.212-7.174-7.174v-65.943c0-3.962 3.212-7.174 7.174-7.174s7.174 3.212 7.174 7.174v66c-.031 3.94-3.234 7.117-7.174 7.117z"/><path d="m227.416 281.946c-3.962 0-7.174-3.212-7.174-7.174v-81.065c0-3.962 3.212-7.174 7.174-7.174s7.174 3.212 7.174 7.174v81.065c0 3.962-3.212 7.174-7.174 7.174z"/><path d="m154.199 355.163c-3.962 0-7.174-3.212-7.174-7.174v-111.239c0-3.962 3.212-7.174 7.174-7.174s7.174 3.212 7.174 7.174v111.239c0 3.962-3.212 7.174-7.174 7.174z"/></g></svg>