<svg id="Line" height="512" viewBox="0 0 128 128" width="512" fill="#50cb93" xmlns="http://www.w3.org/2000/svg"><path d="m67.881 109.971a20.741 20.741 0 0 1 -5.109-.638l-25.345-6.459a18.723 18.723 0 0 0 -10.86.478l-10.715 3.726a4.255 4.255 0 0 1 -4.924-1.609c-4.561-6.742-6.258-14.769-5.044-23.852a4.267 4.267 0 0 1 3.181-3.586l8.646-2.213c4.357-5.307 9.447-8.3 15.135-8.883 9-.928 16.436 4.434 17.8 5.484l18.446 3.29a7.982 7.982 0 0 1 6.448 9.249 7.874 7.874 0 0 1 -.179.78l34.329-20.05a8.519 8.519 0 0 1 9.257 14.283c-14.316 10.267-31.117 21.159-39.857 26.737a20.857 20.857 0 0 1 -11.209 3.263zm-35.1-9.682a20.769 20.769 0 0 1 5.139.646l25.346 6.459a18.847 18.847 0 0 0 14.747-2.371c8.723-5.568 25.489-16.437 39.762-26.677a6.52 6.52 0 0 0 -7.084-10.932l-37.475 21.891a8.175 8.175 0 0 1 -.969.792 7.921 7.921 0 0 1 -5.96 1.309l-18.693-3.334a1 1 0 1 1 .351-1.968l18.694 3.334a5.946 5.946 0 0 0 4.465-.981 6.263 6.263 0 0 0 .747-.615 1.031 1.031 0 0 1 .087-.088 5.919 5.919 0 0 0 1.628-3.147 5.979 5.979 0 0 0 -4.831-6.929l-18.693-3.334a1.006 1.006 0 0 1 -.458-.21c-.074-.062-7.639-6.138-16.549-5.208-5.222.545-9.926 3.373-13.977 8.406a1 1 0 0 1 -.532.341l-8.964 2.3a2.274 2.274 0 0 0 -1.7 1.912c-1.146 8.585.441 16.144 4.718 22.468a2.252 2.252 0 0 0 2.611.839l10.713-3.724a20.737 20.737 0 0 1 6.878-1.179z"/><path d="m101.523 72.612a1 1 0 0 1 -.793-.389c-.71-.923-3.282-3.868-6.537-3.037-.382.1-9.385 2.356-12.7.084a5.461 5.461 0 0 1 -1.922-3.476 6.44 6.44 0 0 0 -.761-2.044c-3.132-4.524-12.46-2.959-12.854-2.89a24.62 24.62 0 0 0 -4.464 1.4 21.939 21.939 0 0 1 -5.848 1.633c-1.234.115-7.534.978-10.068 6.582a1 1 0 1 1 -1.822-.824c2.99-6.611 10.276-7.616 11.706-7.75a20.1 20.1 0 0 0 5.317-1.509 26.485 26.485 0 0 1 4.833-1.5c1.123-.2 11.056-1.75 14.842 3.719a8.138 8.138 0 0 1 1.048 2.689 3.856 3.856 0 0 0 1.115 2.324c1.8 1.233 7.564.524 11.08-.372 4.428-1.134 7.716 2.585 8.616 3.754a1 1 0 0 1 -.791 1.61z"/><path d="m61.309 44.106a12.923 12.923 0 0 1 -9.336-3.654 12.89 12.89 0 0 1 -3.438-10.932 1 1 0 0 1 .873-.874 13.4 13.4 0 0 1 11.367 3.53 12.89 12.89 0 0 1 3.438 10.932 1 1 0 0 1 -.873.873 17 17 0 0 1 -2.031.125zm-10.862-13.549a10.73 10.73 0 0 0 2.94 8.48 11.219 11.219 0 0 0 8.913 3.034 10.73 10.73 0 0 0 -2.94-8.48 11.229 11.229 0 0 0 -8.913-3.034z"/><path d="m77.993 41.669q-1.143 0-2.313-.114a1 1 0 0 1 -.9-.9c-.651-6.647 1.4-12.883 5.625-17.109a19.67 19.67 0 0 1 16.2-5.41 1 1 0 0 1 .9.9c.651 6.646-1.4 12.881-5.624 17.107a19.279 19.279 0 0 1 -13.888 5.526zm-1.288-2.039a17.553 17.553 0 0 0 13.764-4.9 18.621 18.621 0 0 0 5.115-14.666 17.56 17.56 0 0 0 -13.763 4.9 18.626 18.626 0 0 0 -5.116 14.666z"/><path d="m69.536 60.536a1 1 0 0 1 -.986-.84c-2.642-16.327 16.813-29.881 17.643-30.449a1 1 0 1 1 1.131 1.653c-.192.132-19.239 13.408-16.8 28.48a1 1 0 0 1 -.827 1.147.98.98 0 0 1 -.161.009z"/><path d="m69.536 60.536a1 1 0 0 1 -1-.942c-.416-7.232-6.556-18.87-11.326-21.471a1 1 0 1 1 .957-1.756c5.431 2.961 11.9 15.056 12.365 23.112a1 1 0 0 1 -.94 1.056z"/></svg>